<?xml version="1.0" encoding="UTF-8"?>
<svg width="636px" height="112px" viewBox="0 0 636 112" version="1.1" xmlns="http://www.w3.org/2000/svg" xmlns:xlink="http://www.w3.org/1999/xlink">
    <title>logo</title>
    <g id="Page-1" stroke="none" stroke-width="1" fill="none" fill-rule="evenodd">
        <circle id="Oval" stroke="#28528C" stroke-width="20" fill="#28528C" cx="122.5" cy="56.5" r="20.5"></circle>
        <circle id="Oval" stroke="#396FBA" stroke-width="20" fill-opacity="0.8" fill="#FFFFFF" cx="57" cy="56" r="45"></circle>
        <circle id="Oval" stroke="#396FBA" stroke-width="20" fill-opacity="0.8" fill="#FFFFFF" cx="192" cy="56" r="45"></circle>
        <path d="M300.801792,95 C306.948862,95 312.237402,92.6512181 316.667413,87.9536542 C317.010825,90.8282828 317.45726,92.8265003 318.006719,93.9483066 L318.006719,93.9483066 L328,93.9483066 L328,93.1069519 C326.695035,90.0219846 326.042553,85.8677956 326.042553,80.644385 L326.042553,80.644385 L326.042553,54.4572193 C325.905189,48.707962 324.016424,44.1944444 320.37626,40.9166667 C316.736096,37.6388889 311.705114,36 305.283315,36 C301.231056,36 297.513624,36.7712418 294.131019,38.3137255 C290.748414,39.8562092 288.069802,41.9508318 286.095185,44.5975936 C284.120567,47.2443553 283.133259,49.9875223 283.133259,52.8270945 L283.133259,52.8270945 L292.714446,52.8270945 C292.714446,50.3380867 293.864875,48.2171717 296.165733,46.4643494 C298.466592,44.711527 301.316909,43.8351159 304.716685,43.8351159 C308.597238,43.8351159 311.533408,44.8429887 313.525196,46.8587344 C315.516984,48.8744801 316.512878,51.5825906 316.512878,54.983066 L316.512878,54.983066 L316.512878,59.4527629 L307.240761,59.4527629 C299.239268,59.4527629 293.032102,61.0916518 288.619261,64.3694296 C284.20642,67.6472074 282,72.248366 282,78.1729055 C282,83.0457516 283.759985,87.0684789 287.279955,90.2410873 C290.799925,93.4136958 295.307204,95 300.801792,95 Z M302.670103,86 C299.542955,86 296.982818,85.1493056 294.989691,83.4479167 C292.996564,81.7465278 292,79.3854167 292,76.3645833 C292,69.4548611 297.841924,66 309.525773,66 L309.525773,66 L317,66 L317,77.5625 C315.797251,80.0625 313.85567,82.09375 311.175258,83.65625 C308.494845,85.21875 305.659794,86 302.670103,86 Z M354.565217,93 L354.565217,53.1206897 C355.875049,50.4310345 357.701919,48.2586207 360.045828,46.6034483 C362.389738,44.9482759 365.112808,44.1206897 368.215041,44.1206897 C372.041128,44.1206897 374.858989,45.0862069 376.668625,47.0172414 C378.478261,48.9482759 379.400313,51.9310345 379.434783,55.9655172 L379.434783,55.9655172 L379.434783,93 L389,93 L389,56.0172414 C388.896592,42.6724138 382.933412,36 371.110458,36 C364.216608,36 358.632589,38.6896552 354.358402,44.0689655 L354.358402,44.0689655 L354.048179,37.0344828 L345,37.0344828 L345,93 L354.565217,93 Z M422.526316,95 C424.947368,95 427.438596,94.6529814 430,93.9589443 L430,93.9589443 L430,86.1510264 C428.035088,86.5674487 426.491228,86.7756598 425.368421,86.7756598 C423.087719,86.7756598 421.473684,86.2117546 420.526316,85.0839443 C419.578947,83.9561339 419.105263,82.2644184 419.105263,80.0087977 L419.105263,80.0087977 L419.105263,45.0813783 L429.736842,45.0813783 L429.736842,37.6378299 L419.105263,37.6378299 L419.105263,24 L409.368421,24 L409.368421,37.6378299 L399,37.6378299 L399,45.0813783 L409.368421,45.0813783 L409.368421,80.0087977 C409.368421,84.797654 410.473684,88.4934018 412.684211,91.0960411 C414.894737,93.6986804 418.175439,95 422.526316,95 Z M449.474886,28 C451.283105,28 452.656012,27.4811321 453.593607,26.4433962 C454.531202,25.4056604 455,24.1084906 455,22.5518868 C455,20.995283 454.531202,19.6808176 453.593607,18.6084906 C452.656012,17.5361635 451.283105,17 449.474886,17 C447.666667,17 446.302131,17.5361635 445.381279,18.6084906 C444.460426,19.6808176 444,20.995283 444,22.5518868 C444,24.1084906 444.460426,25.4056604 445.381279,26.4433962 C446.302131,27.4811321 447.666667,28 449.474886,28 Z M455,93 L455,37 L445,37 L445,93 L455,93 Z M495.839912,95 C499.619152,95 503.200841,94.1235888 506.584978,92.3707665 C509.969115,90.6179441 512.674708,88.2691622 514.701754,85.3244207 C516.728801,82.3796791 517.828216,79.2771836 518,76.016934 L518,76.016934 L508.98136,76.016934 C508.706506,79.1720143 507.29788,81.8012478 504.755482,83.9046346 C502.213085,86.0080214 499.241228,87.0597148 495.839912,87.0597148 C490.926901,87.0597148 487.147661,85.2893642 484.502193,81.7486631 C481.856725,78.207962 480.533991,73.1598336 480.533991,66.6042781 L480.533991,66.6042781 L480.533991,64.7638146 C480.533991,58.0329768 481.865314,52.8884433 484.527961,49.3302139 C487.190607,45.7719846 490.944079,43.9928699 495.788377,43.9928699 C499.395833,43.9928699 502.427814,45.176025 504.88432,47.5423351 C507.340826,49.9086453 508.706506,52.9322638 508.98136,56.6131907 L508.98136,56.6131907 L518,56.6131907 C517.725146,50.513369 515.517727,45.5528818 511.377741,41.7317291 C507.237756,37.9105764 502.041301,36 495.788377,36 C490.703582,36 486.297332,37.1919192 482.569627,39.5757576 C478.841923,41.959596 475.981725,45.3074866 473.989035,49.6194296 C471.996345,53.9313725 471,58.8568033 471,64.3957219 L471,64.3957219 L471,66.0258467 C471,75.0002971 473.241776,82.0729352 477.725329,87.2437611 C482.208882,92.414587 488.247076,95 495.839912,95 Z M550.333333,94 C557.528951,94 562.985915,91.8103448 566.704225,87.4310345 L566.704225,87.4310345 L566.910798,92.9655172 L576,92.9655172 L576,37 L566.446009,37 L566.446009,77.7068966 C564.035994,83.1551724 559.181534,85.8793103 551.882629,85.8793103 C544.99687,85.8793103 541.553991,81.637931 541.553991,73.1551724 L541.553991,73.1551724 L541.553991,37 L532,37 L532,73.4137931 C532.034429,80.2068966 533.609546,85.3362069 536.725352,88.8017241 C539.841158,92.2672414 544.377152,94 550.333333,94 Z M614.180233,95 C620.633721,95 625.883721,93.4662805 629.930233,90.3988414 C633.976744,87.3314023 636,83.2560903 636,78.1729055 C636,75.1229947 635.276163,72.5375817 633.828488,70.4166667 C632.380814,68.2957516 630.156977,66.4815805 627.156977,64.9741533 C624.156977,63.4667261 620.241279,62.1696376 615.409884,61.0828877 C610.578488,59.9961378 607.238372,58.8568033 605.389535,57.6648841 C603.540698,56.4729649 602.616279,54.7026144 602.616279,52.3538324 C602.616279,49.8648247 603.610465,47.849079 605.598837,46.3065954 C607.587209,44.7641117 610.343023,43.9928699 613.866279,43.9928699 C617.284884,43.9928699 620.119186,44.9569222 622.369186,46.8850267 C624.619186,48.8131313 625.744186,51.1093286 625.744186,53.7736185 L625.744186,53.7736185 L635.476744,53.7736185 C635.476744,48.5852644 633.479651,44.3259061 629.485465,40.9955437 C625.491279,37.6651812 620.284884,36 613.866279,36 C607.761628,36 602.747093,37.6125966 598.822674,40.8377897 C594.898256,44.0629828 592.936047,48.006833 592.936047,52.6693405 C592.936047,55.4738562 593.625,57.892751 595.002907,59.926025 C596.380814,61.9592989 598.508721,63.7121212 601.386628,65.184492 C604.264535,66.6568627 608.15407,67.9188948 613.055233,68.9705882 C617.956395,70.0222816 621.392442,71.2755496 623.363372,72.7303922 C625.334302,74.1852347 626.319767,76.2272727 626.319767,78.8565062 C626.319767,81.345514 625.212209,83.3349673 622.997093,84.8248663 C620.781977,86.3147653 617.843023,87.0597148 614.180233,87.0597148 C610.203488,87.0597148 607.002907,86.1044266 604.578488,84.1938503 C602.15407,82.2832739 600.854651,79.697861 600.680233,76.4376114 L600.680233,76.4376114 L591,76.4376114 C591,79.8030303 591.985465,82.9318182 593.956395,85.823975 C595.927326,88.7161319 598.656977,90.9685086 602.145349,92.5811052 C605.633721,94.1937017 609.645349,95 614.180233,95 Z" id="anticus" fill-opacity="0.9" fill="#FFFFFF" fill-rule="nonzero"></path>
    </g>
</svg>