<?xml version="1.0" encoding="UTF-8"?>
<svg width="649px" height="139px" viewBox="0 0 649 139" version="1.1" xmlns="http://www.w3.org/2000/svg" xmlns:xlink="http://www.w3.org/1999/xlink">
    <title>logo</title>
    <g id="Page-1" stroke="none" stroke-width="1" fill="none" fill-rule="evenodd">
        <g id="Artboard" transform="translate(-27.000000, -130.000000)">
            <rect fill="#4582D7" x="0" y="0" width="728" height="415"></rect>
            <path d="M218.901639,268 L227.136612,245.032967 L263.803279,245.032967 L272.15847,268 L284,268 L250.519126,180 L240.420765,180 L207,268 L218.901639,268 Z M260,235 L230,235 L244.969697,195 L260,235 Z M308.304348,267 L308.304348,220.124319 C309.852331,216.962795 312.011359,214.409256 314.781434,212.463702 C317.551508,210.518149 320.769683,209.545372 324.435958,209.545372 C328.957697,209.545372 332.287897,210.680278 334.426557,212.950091 C336.565217,215.219903 337.654916,218.725953 337.695652,223.46824 L337.695652,223.46824 L337.695652,267 L349,267 L349,223.529038 C348.877791,207.843013 341.830396,200 327.857814,200 C319.710537,200 313.111242,203.161525 308.059929,209.484574 L308.059929,209.484574 L307.693302,201.215971 L297,201.215971 L297,267 L308.304348,267 Z M389.320883,269 C392.132428,269 395.025467,268.59433 398,267.782991 L398,267.782991 L398,258.655425 C395.718166,259.142229 393.925297,259.38563 392.621392,259.38563 C389.972835,259.38563 388.098472,258.726417 386.998302,257.407991 C385.898132,256.089565 385.348048,254.111926 385.348048,251.475073 L385.348048,251.475073 L385.348048,210.644428 L397.694397,210.644428 L397.694397,201.942815 L385.348048,201.942815 L385.348048,186 L374.040747,186 L374.040747,201.942815 L362,201.942815 L362,210.644428 L374.040747,210.644428 L374.040747,251.475073 C374.040747,257.073314 375.324278,261.393695 377.891341,264.436217 C380.458404,267.478739 384.268251,269 389.320883,269 Z M419.47032,192 C421.607306,192 423.229833,191.386792 424.3379,190.160377 C425.445967,188.933962 426,187.400943 426,185.561321 C426,183.721698 425.445967,182.168239 424.3379,180.900943 C423.229833,179.633648 421.607306,179 419.47032,179 C417.333333,179 415.7207,179.633648 414.63242,180.900943 C413.54414,182.168239 413,183.721698 413,185.561321 C413,187.400943 413.54414,188.933962 414.63242,190.160377 C415.7207,191.386792 417.333333,192 419.47032,192 Z M425,268 L425,202 L414,202 L414,268 L425,268 Z M472.539474,269 C476.881579,269 480.996711,267.989899 484.884868,265.969697 C488.773026,263.949495 491.881579,261.242424 494.210526,257.848485 C496.539474,254.454545 497.802632,250.878788 498,247.121212 L498,247.121212 L487.638158,247.121212 C487.322368,250.757576 485.703947,253.787879 482.782895,256.212121 C479.861842,258.636364 476.447368,259.848485 472.539474,259.848485 C466.894737,259.848485 462.552632,257.808081 459.513158,253.727273 C456.473684,249.646465 454.953947,243.828283 454.953947,236.272727 L454.953947,236.272727 L454.953947,234.151515 C454.953947,226.393939 456.483553,220.464646 459.542763,216.363636 C462.601974,212.262626 466.914474,210.212121 472.480263,210.212121 C476.625,210.212121 480.108553,211.575758 482.930921,214.30303 C485.753289,217.030303 487.322368,220.515152 487.638158,224.757576 L487.638158,224.757576 L498,224.757576 C497.684211,217.727273 495.148026,212.010101 490.391447,207.606061 C485.634868,203.20202 479.664474,201 472.480263,201 C466.638158,201 461.575658,202.373737 457.292763,205.121212 C453.009868,207.868687 449.723684,211.727273 447.434211,216.69697 C445.144737,221.666667 444,227.343434 444,233.727273 L444,233.727273 L444,235.606061 C444,245.949495 446.575658,254.10101 451.726974,260.060606 C456.878289,266.020202 463.815789,269 472.539474,269 Z M535.666667,269 C544.170579,269 550.619718,266.426195 555.014085,261.278584 L555.014085,261.278584 L555.258216,267.784029 L566,267.784029 L566,202 L554.70892,202 L554.70892,249.848457 C551.86072,256.252571 546.123631,259.454628 537.497653,259.454628 C529.359937,259.454628 525.29108,254.469147 525.29108,244.498185 L525.29108,244.498185 L525.29108,202 L514,202 L514,244.802178 C514.040689,252.787054 515.902191,258.816243 519.584507,262.889746 C523.266823,266.963249 528.627543,269 535.666667,269 Z M609.786047,269 C617.243411,269 623.310078,267.232323 627.986047,263.69697 C632.662016,260.161616 635,255.464646 635,249.606061 C635,246.090909 634.163566,243.111111 632.490698,240.666667 C630.817829,238.222222 628.248062,236.131313 624.781395,234.393939 C621.314729,232.656566 616.789922,231.161616 611.206977,229.909091 C605.624031,228.656566 601.764341,227.343434 599.627907,225.969697 C597.491473,224.59596 596.423256,222.555556 596.423256,219.848485 C596.423256,216.979798 597.572093,214.656566 599.869767,212.878788 C602.167442,211.10101 605.351938,210.212121 609.423256,210.212121 C613.373643,210.212121 616.648837,211.323232 619.248837,213.545455 C621.848837,215.767677 623.148837,218.414141 623.148837,221.484848 L623.148837,221.484848 L634.395349,221.484848 C634.395349,215.505051 632.087597,210.59596 627.472093,206.757576 C622.856589,202.919192 616.84031,201 609.423256,201 C602.368992,201 596.574419,202.858586 592.039535,206.575758 C587.504651,210.292929 585.237209,214.838384 585.237209,220.212121 C585.237209,223.444444 586.033333,226.232323 587.625581,228.575758 C589.217829,230.919192 591.676744,232.939394 595.002326,234.636364 C598.327907,236.333333 602.822481,237.787879 608.486047,239 C614.149612,240.212121 618.120155,241.656566 620.397674,243.333333 C622.675194,245.010101 623.813953,247.363636 623.813953,250.393939 C623.813953,253.262626 622.534109,255.555556 619.974419,257.272727 C617.414729,258.989899 614.018605,259.848485 609.786047,259.848485 C605.190698,259.848485 601.492248,258.747475 598.690698,256.545455 C595.889147,254.343434 594.387597,251.363636 594.186047,247.606061 L594.186047,247.606061 L583,247.606061 C583,251.484848 584.13876,255.090909 586.416279,258.424242 C588.693798,261.757576 591.848062,264.353535 595.87907,266.212121 C599.910078,268.070707 604.545736,269 609.786047,269 Z" id="Anticus" fill-opacity="0.9" fill="#FFFFFF" fill-rule="nonzero"></path>
            <circle id="Oval" fill-opacity="0.5" fill="#FFFFFF" cx="108" cy="224" r="45"></circle>
            <circle id="Oval" fill="#E3ECF9" cx="63" cy="204" r="25"></circle>
            <circle id="Oval" fill="#E3ECF9" cx="153" cy="204" r="25"></circle>
        </g>
    </g>
</svg>